<svg xmlns="http://www.w3.org/2000/svg" width="24" height="24" style=""><rect id="backgroundrect" width="100%" height="100%" x="0" y="0" fill="none" stroke="none"/><g class="currentLayer" style=""><title>Layer 1</title><path fill-rule="evenodd" d="M21.734225301742555,3.6073240947723386 a0.7500000000000003,0.7500000000000003 0 0 1 0,1.06 l-11.5,11.5 a0.7500000000000003,0.7500000000000003 0 0 1 -1.072,-0.012000000000000005 l-5.5,-5.75 a0.7500000000000003,0.7500000000000003 0 1 1 1.084,-1.036 l4.97,5.195 L20.674225301742553,3.6073240947723386 a0.7500000000000003,0.7500000000000003 0 0 1 1.06,0 z" id="svg_1" class=""/><path fill-rule="evenodd" d="M22.015915899276735,8.81859251976013 a0.7500000000000006,0.7500000000000006 0 0 1 0,1.06 l-11.5,11.5 a0.7500000000000006,0.7500000000000006 0 0 1 -1.072,-0.012000000000000009 l-5.5,-5.75 a0.7500000000000006,0.7500000000000006 0 1 1 1.084,-1.036 l4.97,5.195 L20.955915899276732,8.81859251976013 a0.7500000000000006,0.7500000000000006 0 0 1 1.06,0 z" class="" id="svg_2"/></g></svg>